<svg viewBox="0 0 1053 1141" fill="none" xmlns="http://www.w3.org/2000/svg">
<mask id="path-1-outside-1_112_400" maskUnits="userSpaceOnUse" x="983" y="526" width="60" height="98" fill="black">
<rect fill="white" x="983" y="526" width="60" height="98"/>
<path d="M1012.99 622.28C1007.36 622.28 1002.41 621.171 998.144 618.952C993.963 616.648 990.72 613.491 988.416 609.48C986.112 605.469 984.96 600.776 984.96 595.4H996.48C996.48 600.605 997.931 604.701 1000.83 607.688C1003.82 610.589 1007.91 612.04 1013.12 612.04C1018.41 612.04 1022.51 610.504 1025.41 607.432C1028.31 604.36 1029.76 600.349 1029.76 595.4V588.744C1029.76 583.453 1028.31 579.357 1025.41 576.456C1022.51 573.555 1018.41 572.104 1013.12 572.104H1003.52V560.584L1026.69 538.056H988.8V527.56H1038.34V539.08L1013.38 563.272V561.864C1021.91 561.864 1028.69 564.296 1033.73 569.16C1038.76 574.024 1041.28 580.552 1041.28 588.744V595.4C1041.28 600.776 1040.09 605.469 1037.7 609.48C1035.39 613.491 1032.11 616.648 1027.84 618.952C1023.57 621.171 1018.62 622.28 1012.99 622.28Z"/>
</mask>
<path d="M1012.99 622.28C1007.36 622.28 1002.41 621.171 998.144 618.952C993.963 616.648 990.72 613.491 988.416 609.48C986.112 605.469 984.96 600.776 984.96 595.4H996.48C996.48 600.605 997.931 604.701 1000.83 607.688C1003.82 610.589 1007.91 612.04 1013.12 612.04C1018.41 612.04 1022.51 610.504 1025.41 607.432C1028.31 604.36 1029.76 600.349 1029.76 595.4V588.744C1029.76 583.453 1028.31 579.357 1025.41 576.456C1022.51 573.555 1018.41 572.104 1013.12 572.104H1003.52V560.584L1026.69 538.056H988.8V527.56H1038.34V539.08L1013.38 563.272V561.864C1021.91 561.864 1028.69 564.296 1033.73 569.16C1038.76 574.024 1041.28 580.552 1041.28 588.744V595.4C1041.28 600.776 1040.09 605.469 1037.7 609.48C1035.39 613.491 1032.11 616.648 1027.84 618.952C1023.57 621.171 1018.62 622.28 1012.99 622.28Z" fill="white"/>
<path d="M998.144 618.952L997.661 619.828L997.672 619.834L997.683 619.839L998.144 618.952ZM988.416 609.48L987.549 609.978L987.549 609.978L988.416 609.48ZM984.96 595.4V594.4H983.96V595.4H984.96ZM996.48 595.4H997.48V594.4H996.48V595.4ZM1000.83 607.688L1000.11 608.385L1000.12 608.395L1000.14 608.405L1000.83 607.688ZM1025.41 607.432L1024.68 606.745L1024.68 606.745L1025.41 607.432ZM1025.41 576.456L1024.7 577.163L1024.7 577.163L1025.41 576.456ZM1003.52 572.104H1002.52V573.104H1003.52V572.104ZM1003.52 560.584L1002.82 559.867L1002.52 560.162V560.584H1003.52ZM1026.69 538.056L1027.39 538.773L1029.15 537.056H1026.69V538.056ZM988.8 538.056H987.8V539.056H988.8V538.056ZM988.8 527.56V526.56H987.8V527.56H988.8ZM1038.34 527.56H1039.34V526.56H1038.34V527.56ZM1038.34 539.08L1039.03 539.798L1039.34 539.503V539.08H1038.34ZM1013.38 563.272H1012.38V565.634L1014.07 563.99L1013.38 563.272ZM1013.38 561.864V560.864H1012.38V561.864H1013.38ZM1033.73 569.16L1034.42 568.441L1034.42 568.441L1033.73 569.16ZM1037.7 609.48L1036.84 608.968L1036.83 608.975L1036.83 608.982L1037.7 609.48ZM1027.84 618.952L1028.3 619.839L1028.31 619.836L1028.32 619.832L1027.84 618.952ZM1012.99 621.28C1007.49 621.28 1002.71 620.198 998.605 618.065L997.683 619.839C1002.11 622.144 1007.23 623.28 1012.99 623.28V621.28ZM998.627 618.076C994.6 615.858 991.493 612.829 989.283 608.982L987.549 609.978C989.947 614.153 993.325 617.438 997.661 619.828L998.627 618.076ZM989.283 608.982C987.079 605.146 985.96 600.63 985.96 595.4H983.96C983.96 600.922 985.145 605.793 987.549 609.978L989.283 608.982ZM984.96 596.4H996.48V594.4H984.96V596.4ZM995.48 595.4C995.48 600.797 996.989 605.168 1000.11 608.385L1001.55 606.991C998.872 604.235 997.48 600.414 997.48 595.4H995.48ZM1000.14 608.405C1003.35 611.531 1007.72 613.04 1013.12 613.04V611.04C1008.11 611.04 1004.28 609.648 1001.53 606.971L1000.14 608.405ZM1013.12 613.04C1018.61 613.04 1023 611.439 1026.14 608.119L1024.68 606.745C1022.01 609.569 1018.21 611.04 1013.12 611.04V613.04ZM1026.14 608.119C1029.24 604.83 1030.76 600.558 1030.76 595.4H1028.76C1028.76 600.141 1027.38 603.89 1024.68 606.745L1026.14 608.119ZM1030.76 595.4V588.744H1028.76V595.4H1030.76ZM1030.76 588.744C1030.76 583.268 1029.25 578.888 1026.12 575.749L1024.7 577.163C1027.36 579.827 1028.76 583.638 1028.76 588.744H1030.76ZM1026.12 575.749C1022.98 572.61 1018.6 571.104 1013.12 571.104V573.104C1018.23 573.104 1022.04 574.499 1024.7 577.163L1026.12 575.749ZM1013.12 571.104H1003.52V573.104H1013.12V571.104ZM1004.52 572.104V560.584H1002.52V572.104H1004.52ZM1004.22 561.301L1027.39 538.773L1025.99 537.339L1002.82 559.867L1004.22 561.301ZM1026.69 537.056H988.8V539.056H1026.69V537.056ZM989.8 538.056V527.56H987.8V538.056H989.8ZM988.8 528.56H1038.34V526.56H988.8V528.56ZM1037.34 527.56V539.08H1039.34V527.56H1037.34ZM1037.64 538.362L1012.68 562.554L1014.07 563.99L1039.03 539.798L1037.64 538.362ZM1014.38 563.272V561.864H1012.38V563.272H1014.38ZM1013.38 562.864C1021.71 562.864 1028.22 565.233 1033.03 569.879L1034.42 568.441C1029.16 563.359 1022.11 560.864 1013.38 560.864V562.864ZM1033.03 569.879C1037.84 574.523 1040.28 580.773 1040.28 588.744H1042.28C1042.28 580.331 1039.69 573.525 1034.42 568.441L1033.03 569.879ZM1040.28 588.744V595.4H1042.28V588.744H1040.28ZM1040.28 595.4C1040.28 600.624 1039.12 605.135 1036.84 608.968L1038.56 609.992C1041.05 605.804 1042.28 600.928 1042.28 595.4H1040.28ZM1036.83 608.982C1034.62 612.823 1031.48 615.852 1027.36 618.072L1028.32 619.832C1032.74 617.444 1036.16 614.158 1038.56 609.978L1036.83 608.982ZM1027.38 618.065C1023.28 620.198 1018.49 621.28 1012.99 621.28V623.28C1018.76 623.28 1023.87 622.144 1028.3 619.839L1027.38 618.065Z" fill="white" mask="url(#path-1-outside-1_112_400)"/>
<mask id="path-3-outside-2_112_400" maskUnits="userSpaceOnUse" x="496" y="1008" width="63" height="98" fill="black">
<rect fill="white" x="496" y="1008" width="63" height="98"/>
<path d="M527.528 1104.28C521.555 1104.28 516.307 1103.04 511.784 1100.57C507.347 1098.01 503.891 1094.47 501.416 1089.94C498.941 1085.42 497.704 1080.17 497.704 1074.2C497.704 1069.51 498.344 1064.9 499.624 1060.38C500.989 1055.85 502.995 1051.5 505.64 1047.32L529.064 1009.56H541.864L515.368 1052.06L515.88 1052.44C517.501 1050.05 519.72 1048.22 522.536 1046.94C525.352 1045.66 528.509 1045.02 532.008 1045.02C537.128 1045.02 541.565 1046.21 545.32 1048.6C549.075 1050.99 551.976 1054.36 554.024 1058.71C556.072 1063.06 557.096 1068.23 557.096 1074.2C557.096 1080.17 555.859 1085.42 553.384 1089.94C550.909 1094.47 547.453 1098.01 543.016 1100.57C538.664 1103.04 533.501 1104.28 527.528 1104.28ZM527.4 1094.04C532.861 1094.04 537.256 1092.25 540.584 1088.66C543.912 1084.99 545.576 1080.17 545.576 1074.2C545.576 1068.23 543.912 1063.45 540.584 1059.86C537.256 1056.19 532.861 1054.36 527.4 1054.36C521.939 1054.36 517.544 1056.19 514.216 1059.86C510.888 1063.45 509.224 1068.23 509.224 1074.2C509.224 1080.17 510.888 1084.99 514.216 1088.66C517.544 1092.25 521.939 1094.04 527.4 1094.04Z"/>
</mask>
<path d="M527.528 1104.28C521.555 1104.28 516.307 1103.04 511.784 1100.57C507.347 1098.01 503.891 1094.47 501.416 1089.94C498.941 1085.42 497.704 1080.17 497.704 1074.2C497.704 1069.51 498.344 1064.9 499.624 1060.38C500.989 1055.85 502.995 1051.5 505.64 1047.32L529.064 1009.56H541.864L515.368 1052.06L515.88 1052.44C517.501 1050.05 519.72 1048.22 522.536 1046.94C525.352 1045.66 528.509 1045.02 532.008 1045.02C537.128 1045.02 541.565 1046.21 545.32 1048.6C549.075 1050.99 551.976 1054.36 554.024 1058.71C556.072 1063.06 557.096 1068.23 557.096 1074.2C557.096 1080.17 555.859 1085.42 553.384 1089.94C550.909 1094.47 547.453 1098.01 543.016 1100.57C538.664 1103.04 533.501 1104.28 527.528 1104.28ZM527.4 1094.04C532.861 1094.04 537.256 1092.25 540.584 1088.66C543.912 1084.99 545.576 1080.17 545.576 1074.2C545.576 1068.23 543.912 1063.45 540.584 1059.86C537.256 1056.19 532.861 1054.36 527.4 1054.36C521.939 1054.36 517.544 1056.19 514.216 1059.86C510.888 1063.45 509.224 1068.23 509.224 1074.2C509.224 1080.17 510.888 1084.99 514.216 1088.66C517.544 1092.25 521.939 1094.04 527.4 1094.04Z" fill="white"/>
<path d="M511.784 1100.57L511.284 1101.43L511.294 1101.44L511.304 1101.45L511.784 1100.57ZM501.416 1089.94L502.293 1089.46L502.293 1089.46L501.416 1089.94ZM499.624 1060.38L498.667 1060.09L498.664 1060.1L498.662 1060.1L499.624 1060.38ZM505.64 1047.32L506.485 1047.85L506.49 1047.85L505.64 1047.32ZM529.064 1009.56V1008.56H528.508L528.214 1009.03L529.064 1009.56ZM541.864 1009.56L542.713 1010.09L543.666 1008.56H541.864V1009.56ZM515.368 1052.06L514.519 1051.53L514.034 1052.31L514.768 1052.86L515.368 1052.06ZM515.88 1052.44L515.28 1053.24L516.119 1053.87L516.707 1053L515.88 1052.44ZM522.536 1046.94L522.122 1046.03L522.122 1046.03L522.536 1046.94ZM554.024 1058.71L553.119 1059.14L554.024 1058.71ZM553.384 1089.94L552.507 1089.46L552.507 1089.46L553.384 1089.94ZM543.016 1100.57L543.51 1101.44L543.516 1101.43L543.016 1100.57ZM540.584 1088.66L541.317 1089.34L541.325 1089.34L540.584 1088.66ZM540.584 1059.86L539.843 1060.54L539.851 1060.54L540.584 1059.86ZM514.216 1059.86L514.949 1060.54L514.957 1060.54L514.216 1059.86ZM514.216 1088.66L513.475 1089.34L513.483 1089.34L514.216 1088.66ZM527.528 1103.28C521.696 1103.28 516.618 1102.07 512.264 1099.69L511.304 1101.45C515.996 1104.01 521.414 1105.28 527.528 1105.28V1103.28ZM512.284 1099.7C508.006 1097.23 504.68 1093.83 502.293 1089.46L500.539 1090.42C503.101 1095.11 506.687 1098.78 511.284 1101.43L512.284 1099.7ZM502.293 1089.46C499.911 1085.11 498.704 1080.03 498.704 1074.2H496.704C496.704 1080.31 497.972 1085.73 500.539 1090.42L502.293 1089.46ZM498.704 1074.2C498.704 1069.6 499.331 1065.08 500.586 1060.65L498.662 1060.1C497.357 1064.71 496.704 1069.41 496.704 1074.2H498.704ZM500.581 1060.67C501.919 1056.23 503.886 1051.96 506.485 1047.85L504.795 1046.79C502.104 1051.04 500.059 1055.47 498.667 1060.09L500.581 1060.67ZM506.49 1047.85L529.914 1010.09L528.214 1009.03L504.79 1046.79L506.49 1047.85ZM529.064 1010.56H541.864V1008.56H529.064V1010.56ZM541.015 1009.03L514.519 1051.53L516.217 1052.59L542.713 1010.09L541.015 1009.03ZM514.768 1052.86L515.28 1053.24L516.48 1051.64L515.968 1051.26L514.768 1052.86ZM516.707 1053C518.218 1050.78 520.289 1049.06 522.95 1047.85L522.122 1046.03C519.151 1047.38 516.784 1049.33 515.053 1051.88L516.707 1053ZM522.95 1047.85C525.62 1046.63 528.633 1046.02 532.008 1046.02V1044.02C528.385 1044.02 525.084 1044.68 522.122 1046.03L522.95 1047.85ZM532.008 1046.02C536.967 1046.02 541.212 1047.17 544.783 1049.44L545.857 1047.76C541.919 1045.25 537.289 1044.02 532.008 1044.02V1046.02ZM544.783 1049.44C548.365 1051.72 551.145 1054.94 553.119 1059.14L554.929 1058.29C552.807 1053.78 549.784 1050.26 545.857 1047.76L544.783 1049.44ZM553.119 1059.14C555.091 1063.33 556.096 1068.34 556.096 1074.2H558.096C558.096 1068.11 557.053 1062.8 554.929 1058.29L553.119 1059.14ZM556.096 1074.2C556.096 1080.03 554.889 1085.11 552.507 1089.46L554.261 1090.42C556.828 1085.73 558.096 1080.31 558.096 1074.2H556.096ZM552.507 1089.46C550.12 1093.83 546.794 1097.23 542.516 1099.7L543.516 1101.43C548.113 1098.78 551.699 1095.11 554.261 1090.42L552.507 1089.46ZM542.522 1099.7C538.347 1102.07 533.362 1103.28 527.528 1103.28V1105.28C533.641 1105.28 538.981 1104.01 543.51 1101.44L542.522 1099.7ZM527.4 1095.04C533.103 1095.04 537.776 1093.16 541.317 1089.34L539.851 1087.98C536.736 1091.34 532.619 1093.04 527.4 1093.04V1095.04ZM541.325 1089.34C544.853 1085.45 546.576 1080.37 546.576 1074.2H544.576C544.576 1079.98 542.971 1084.54 539.843 1087.99L541.325 1089.34ZM546.576 1074.2C546.576 1068.03 544.853 1062.99 541.317 1059.18L539.851 1060.54C542.971 1063.9 544.576 1068.42 544.576 1074.2H546.576ZM541.325 1059.19C537.787 1055.29 533.111 1053.36 527.4 1053.36V1055.36C532.611 1055.36 536.725 1057.1 539.843 1060.54L541.325 1059.19ZM527.4 1053.36C521.689 1053.36 517.013 1055.29 513.475 1059.19L514.957 1060.54C518.075 1057.1 522.189 1055.36 527.4 1055.36V1053.36ZM513.483 1059.18C509.947 1062.99 508.224 1068.03 508.224 1074.2H510.224C510.224 1068.42 511.829 1063.9 514.949 1060.54L513.483 1059.18ZM508.224 1074.2C508.224 1080.37 509.947 1085.45 513.475 1089.34L514.957 1087.99C511.829 1084.54 510.224 1079.98 510.224 1074.2H508.224ZM513.483 1089.34C517.024 1093.16 521.697 1095.04 527.4 1095.04V1093.04C522.181 1093.04 518.064 1091.34 514.949 1087.98L513.483 1089.34Z" fill="white" mask="url(#path-3-outside-2_112_400)"/>
<mask id="path-5-outside-3_112_400" maskUnits="userSpaceOnUse" x="7" y="525" width="63" height="97" fill="black">
<rect fill="white" x="7" y="525" width="63" height="97"/>
<path d="M23.936 621L50.432 578.504L49.92 578.12C48.2987 580.509 46.08 582.344 43.264 583.624C40.448 584.904 37.2907 585.544 33.792 585.544C28.7573 585.544 24.32 584.349 20.48 581.96C16.7253 579.571 13.824 576.2 11.776 571.848C9.728 567.411 8.704 562.248 8.704 556.36C8.704 550.301 9.94133 545.053 12.416 540.616C14.8907 536.093 18.3467 532.595 22.784 530.12C27.2213 527.56 32.384 526.28 38.272 526.28C44.2453 526.28 49.4507 527.56 53.888 530.12C58.4107 532.595 61.9093 536.093 64.384 540.616C66.8587 545.053 68.096 550.301 68.096 556.36C68.096 561.053 67.4133 565.661 66.048 570.184C64.768 574.707 62.8053 579.059 60.16 583.24L36.736 621H23.936ZM38.4 576.2C43.8613 576.2 48.256 574.408 51.584 570.824C54.912 567.155 56.576 562.333 56.576 556.36C56.576 550.387 54.912 545.608 51.584 542.024C48.256 538.355 43.8613 536.52 38.4 536.52C32.9387 536.52 28.544 538.355 25.216 542.024C21.888 545.608 20.224 550.387 20.224 556.36C20.224 562.333 21.888 567.155 25.216 570.824C28.544 574.408 32.9387 576.2 38.4 576.2Z"/>
</mask>
<path d="M23.936 621L50.432 578.504L49.92 578.12C48.2987 580.509 46.08 582.344 43.264 583.624C40.448 584.904 37.2907 585.544 33.792 585.544C28.7573 585.544 24.32 584.349 20.48 581.96C16.7253 579.571 13.824 576.2 11.776 571.848C9.728 567.411 8.704 562.248 8.704 556.36C8.704 550.301 9.94133 545.053 12.416 540.616C14.8907 536.093 18.3467 532.595 22.784 530.12C27.2213 527.56 32.384 526.28 38.272 526.28C44.2453 526.28 49.4507 527.56 53.888 530.12C58.4107 532.595 61.9093 536.093 64.384 540.616C66.8587 545.053 68.096 550.301 68.096 556.36C68.096 561.053 67.4133 565.661 66.048 570.184C64.768 574.707 62.8053 579.059 60.16 583.24L36.736 621H23.936ZM38.4 576.2C43.8613 576.2 48.256 574.408 51.584 570.824C54.912 567.155 56.576 562.333 56.576 556.36C56.576 550.387 54.912 545.608 51.584 542.024C48.256 538.355 43.8613 536.52 38.4 536.52C32.9387 536.52 28.544 538.355 25.216 542.024C21.888 545.608 20.224 550.387 20.224 556.36C20.224 562.333 21.888 567.155 25.216 570.824C28.544 574.408 32.9387 576.2 38.4 576.2Z" fill="white"/>
<path d="M23.936 621L23.0874 620.471L22.1341 622H23.936V621ZM50.432 578.504L51.2806 579.033L51.766 578.255L51.032 577.704L50.432 578.504ZM49.92 578.12L50.52 577.32L49.6812 576.691L49.0925 577.558L49.92 578.12ZM43.264 583.624L42.8502 582.714L42.8502 582.714L43.264 583.624ZM20.48 581.96L19.9431 582.804L19.9517 582.809L20.48 581.96ZM11.776 571.848L10.868 572.267L10.8712 572.274L11.776 571.848ZM12.416 540.616L13.2894 541.103L13.2933 541.096L12.416 540.616ZM22.784 530.12L23.2711 530.993L23.2774 530.99L23.2837 530.986L22.784 530.12ZM53.888 530.12L53.3883 530.986L53.3981 530.992L53.408 530.997L53.888 530.12ZM64.384 540.616L63.5067 541.096L63.5106 541.103L64.384 540.616ZM66.048 570.184L65.0907 569.895L65.0882 569.903L65.0858 569.912L66.048 570.184ZM60.16 583.24L59.3149 582.705L59.3102 582.713L60.16 583.24ZM36.736 621V622H37.2924L37.5858 621.527L36.736 621ZM51.584 570.824L52.3168 571.504L52.3247 571.496L51.584 570.824ZM51.584 542.024L50.8432 542.696L50.8512 542.704L51.584 542.024ZM25.216 542.024L25.9488 542.704L25.9567 542.696L25.216 542.024ZM25.216 570.824L24.4752 571.496L24.4832 571.504L25.216 570.824ZM24.7846 621.529L51.2806 579.033L49.5834 577.975L23.0874 620.471L24.7846 621.529ZM51.032 577.704L50.52 577.32L49.32 578.92L49.832 579.304L51.032 577.704ZM49.0925 577.558C47.5818 579.785 45.5113 581.504 42.8502 582.714L43.6778 584.534C46.6487 583.184 49.0155 581.234 50.7475 578.682L49.0925 577.558ZM42.8502 582.714C40.1802 583.927 37.1666 584.544 33.792 584.544V586.544C37.4147 586.544 40.7158 585.881 43.6778 584.534L42.8502 582.714ZM33.792 584.544C28.9223 584.544 24.6722 583.391 21.0083 581.111L19.9517 582.809C23.9678 585.308 28.5924 586.544 33.792 586.544V584.544ZM21.0169 581.116C17.4349 578.837 14.655 575.617 12.6808 571.422L10.8712 572.274C12.993 576.783 16.0158 580.304 19.9431 582.804L21.0169 581.116ZM12.684 571.429C10.7077 567.147 9.704 562.132 9.704 556.36H7.704C7.704 562.364 8.74828 567.674 10.868 572.267L12.684 571.429ZM9.704 556.36C9.704 550.439 10.9124 545.365 13.2894 541.103L11.5426 540.129C8.97029 544.741 7.704 550.164 7.704 556.36H9.704ZM13.2933 541.096C15.6789 536.736 19.0008 533.375 23.2711 530.993L22.2969 529.247C17.6925 531.814 14.1024 535.451 11.5387 540.136L13.2933 541.096ZM23.2837 530.986C27.5476 528.526 32.5329 527.28 38.272 527.28V525.28C32.2351 525.28 26.895 526.594 22.2843 529.254L23.2837 530.986ZM38.272 527.28C44.0993 527.28 49.1265 528.527 53.3883 530.986L54.3877 529.254C49.7748 526.593 44.3914 525.28 38.272 525.28V527.28ZM53.408 530.997C57.763 533.38 61.1238 536.741 63.5067 541.096L65.2613 540.136C62.6949 535.446 59.0583 531.809 54.368 529.243L53.408 530.997ZM63.5106 541.103C65.8876 545.365 67.096 550.439 67.096 556.36H69.096C69.096 550.164 67.8297 544.741 65.2574 540.129L63.5106 541.103ZM67.096 556.36C67.096 560.955 66.4279 565.465 65.0907 569.895L67.0053 570.473C68.3988 565.857 69.096 561.152 69.096 556.36H67.096ZM65.0858 569.912C63.8334 574.337 61.9115 578.601 59.3149 582.705L61.0051 583.775C63.6992 579.516 65.7026 575.076 67.0102 570.456L65.0858 569.912ZM59.3102 582.713L35.8862 620.473L37.5858 621.527L61.0098 583.767L59.3102 582.713ZM36.736 620H23.936V622H36.736V620ZM38.4 577.2C44.1035 577.2 48.7765 575.317 52.3168 571.504L50.8512 570.144C47.7355 573.499 43.6192 575.2 38.4 575.2V577.2ZM52.3247 571.496C55.8525 567.606 57.576 562.528 57.576 556.36H55.576C55.576 562.139 53.9715 566.703 50.8433 570.152L52.3247 571.496ZM57.576 556.36C57.576 550.193 55.8528 545.152 52.3168 541.344L50.8512 542.704C53.9712 546.064 55.576 550.58 55.576 556.36H57.576ZM52.3247 541.352C48.7865 537.451 44.1112 535.52 38.4 535.52V537.52C43.6114 537.52 47.7255 539.258 50.8433 542.696L52.3247 541.352ZM38.4 535.52C32.6888 535.52 28.0135 537.451 24.4753 541.352L25.9567 542.696C29.0745 539.258 33.1886 537.52 38.4 537.52V535.52ZM24.4832 541.344C20.9472 545.152 19.224 550.193 19.224 556.36H21.224C21.224 550.58 22.8288 546.064 25.9488 542.704L24.4832 541.344ZM19.224 556.36C19.224 562.528 20.9475 567.606 24.4753 571.496L25.9567 570.152C22.8285 566.703 21.224 562.139 21.224 556.36H19.224ZM24.4832 571.504C28.0235 575.317 32.6965 577.2 38.4 577.2V575.2C33.1808 575.2 29.0645 573.499 25.9488 570.144L24.4832 571.504Z" fill="white" mask="url(#path-5-outside-3_112_400)"/>
<mask id="path-7-outside-4_112_400" maskUnits="userSpaceOnUse" x="451" y="35" width="136" height="97" fill="black">
<rect fill="white" x="451" y="35" width="136" height="97"/>
<path d="M452.52 131V120.504H477.864V47.16L452.52 66.104V53.304L473.64 37.56H489.384V120.504H510.12V131H452.52ZM529.526 131V119.224L558.07 88.888C562.934 83.6827 566.475 79.0747 568.694 75.064C570.913 70.968 572.022 67.0427 572.022 63.288C572.022 58.0827 570.571 53.9867 567.67 51C564.854 48.0133 560.971 46.52 556.022 46.52C550.561 46.52 546.251 48.056 543.094 51.128C540.022 54.2 538.486 58.424 538.486 63.8H526.966C527.137 58.168 528.417 53.304 530.806 49.208C533.281 45.0267 536.651 41.8267 540.918 39.608C545.27 37.3893 550.305 36.28 556.022 36.28C561.654 36.28 566.518 37.3893 570.614 39.608C574.795 41.7413 577.995 44.8133 580.214 48.824C582.433 52.8347 583.542 57.6133 583.542 63.16C583.542 68.4507 582.134 73.6987 579.318 78.904C576.502 84.1093 571.894 90.04 565.494 96.696L542.454 120.504H585.078V131H529.526Z"/>
</mask>
<path d="M452.52 131V120.504H477.864V47.16L452.52 66.104V53.304L473.64 37.56H489.384V120.504H510.12V131H452.52ZM529.526 131V119.224L558.07 88.888C562.934 83.6827 566.475 79.0747 568.694 75.064C570.913 70.968 572.022 67.0427 572.022 63.288C572.022 58.0827 570.571 53.9867 567.67 51C564.854 48.0133 560.971 46.52 556.022 46.52C550.561 46.52 546.251 48.056 543.094 51.128C540.022 54.2 538.486 58.424 538.486 63.8H526.966C527.137 58.168 528.417 53.304 530.806 49.208C533.281 45.0267 536.651 41.8267 540.918 39.608C545.27 37.3893 550.305 36.28 556.022 36.28C561.654 36.28 566.518 37.3893 570.614 39.608C574.795 41.7413 577.995 44.8133 580.214 48.824C582.433 52.8347 583.542 57.6133 583.542 63.16C583.542 68.4507 582.134 73.6987 579.318 78.904C576.502 84.1093 571.894 90.04 565.494 96.696L542.454 120.504H585.078V131H529.526Z" fill="white"/>
<path d="M452.52 131H451.52V132H452.52V131ZM452.52 120.504V119.504H451.52V120.504H452.52ZM477.864 120.504V121.504H478.864V120.504H477.864ZM477.864 47.16H478.864V45.164L477.265 46.359L477.864 47.16ZM452.52 66.104H451.52V68.1L453.119 66.905L452.52 66.104ZM452.52 53.304L451.922 52.5022L451.52 52.8022V53.304H452.52ZM473.64 37.56V36.56H473.308L473.042 36.7583L473.64 37.56ZM489.384 37.56H490.384V36.56H489.384V37.56ZM489.384 120.504H488.384V121.504H489.384V120.504ZM510.12 120.504H511.12V119.504H510.12V120.504ZM510.12 131V132H511.12V131H510.12ZM453.52 131V120.504H451.52V131H453.52ZM452.52 121.504H477.864V119.504H452.52V121.504ZM478.864 120.504V47.16H476.864V120.504H478.864ZM477.265 46.359L451.921 65.303L453.119 66.905L478.463 47.961L477.265 46.359ZM453.52 66.104V53.304H451.52V66.104H453.52ZM453.118 54.1057L474.238 38.3617L473.042 36.7583L451.922 52.5022L453.118 54.1057ZM473.64 38.56H489.384V36.56H473.64V38.56ZM488.384 37.56V120.504H490.384V37.56H488.384ZM489.384 121.504H510.12V119.504H489.384V121.504ZM509.12 120.504V131H511.12V120.504H509.12ZM510.12 130H452.52V132H510.12V130ZM529.526 131H528.526V132H529.526V131ZM529.526 119.224L528.798 118.539L528.526 118.827V119.224H529.526ZM558.07 88.888L558.798 89.5733L558.801 89.5707L558.07 88.888ZM568.694 75.064L569.569 75.5481L569.573 75.5403L568.694 75.064ZM567.67 51L566.942 51.686L566.948 51.6914L566.953 51.6968L567.67 51ZM543.094 51.128L542.397 50.4112L542.387 50.4209L543.094 51.128ZM538.486 63.8V64.8H539.486V63.8H538.486ZM526.966 63.8L525.966 63.7697L525.935 64.8H526.966V63.8ZM530.806 49.208L529.945 48.6987L529.942 48.7041L530.806 49.208ZM540.918 39.608L540.464 38.7171L540.457 38.7208L540.918 39.608ZM570.614 39.608L570.138 40.4873L570.149 40.4932L570.16 40.4988L570.614 39.608ZM580.214 48.824L581.089 48.3399L581.089 48.3399L580.214 48.824ZM579.318 78.904L580.198 79.3798L580.198 79.3798L579.318 78.904ZM565.494 96.696L566.213 97.3914L566.215 97.3891L565.494 96.696ZM542.454 120.504L541.735 119.809L540.095 121.504H542.454V120.504ZM585.078 120.504H586.078V119.504H585.078V120.504ZM585.078 131V132H586.078V131H585.078ZM530.526 131V119.224H528.526V131H530.526ZM530.254 119.909L558.798 89.5733L557.342 88.2027L528.798 118.539L530.254 119.909ZM558.801 89.5707C563.693 84.3346 567.295 79.6588 569.569 75.5481L567.819 74.5799C565.656 78.4906 562.175 83.0308 557.339 88.2053L558.801 89.5707ZM569.573 75.5403C571.852 71.3327 573.022 67.2444 573.022 63.288H571.022C571.022 66.8409 569.973 70.6033 567.815 74.5877L569.573 75.5403ZM573.022 63.288C573.022 57.8909 571.513 53.5204 568.387 50.3032L566.953 51.6968C569.63 54.4529 571.022 58.2744 571.022 63.288H573.022ZM568.398 50.314C565.354 47.0864 561.186 45.52 556.022 45.52V47.52C560.757 47.52 564.354 48.9402 566.942 51.686L568.398 50.314ZM556.022 45.52C550.366 45.52 545.783 47.1164 542.397 50.4113L543.791 51.8447C546.72 48.9956 550.755 47.52 556.022 47.52V45.52ZM542.387 50.4209C539.085 53.7229 537.486 58.2255 537.486 63.8H539.486C539.486 58.6225 540.959 54.6771 543.801 51.8351L542.387 50.4209ZM538.486 62.8H526.966V64.8H538.486V62.8ZM527.966 63.8303C528.132 58.3336 529.379 53.6389 531.67 49.7119L529.942 48.7041C527.454 52.9691 526.141 58.0023 525.966 63.7697L527.966 63.8303ZM531.667 49.7173C534.047 45.695 537.28 42.6267 541.379 40.4952L540.457 38.7208C536.022 41.0266 532.514 44.3583 529.945 48.6987L531.667 49.7173ZM541.372 40.4989C545.561 38.3632 550.436 37.28 556.022 37.28V35.28C550.174 35.28 544.979 36.4154 540.464 38.7171L541.372 40.4989ZM556.022 37.28C561.522 37.28 566.216 38.3628 570.138 40.4873L571.09 38.7287C566.82 36.4159 561.786 35.28 556.022 35.28V37.28ZM570.16 40.4988C574.168 42.5438 577.219 45.4763 579.339 49.3081L581.089 48.3399C578.771 44.1504 575.423 40.9389 571.068 38.7172L570.16 40.4988ZM579.339 49.3081C581.46 53.1424 582.542 57.7473 582.542 63.16H584.542C584.542 57.4794 583.405 52.5269 581.089 48.3399L579.339 49.3081ZM582.542 63.16C582.542 68.2656 581.185 73.3514 578.438 78.4282L580.198 79.3798C583.083 74.046 584.542 68.6358 584.542 63.16H582.542ZM578.438 78.4282C575.682 83.523 571.141 89.3799 564.773 96.0029L566.215 97.3891C572.647 90.7001 577.322 84.6957 580.198 79.3798L578.438 78.4282ZM564.775 96.0006L541.735 119.809L543.173 121.199L566.213 97.3914L564.775 96.0006ZM542.454 121.504H585.078V119.504H542.454V121.504ZM584.078 120.504V131H586.078V120.504H584.078ZM585.078 130H529.526V132H585.078V130Z" fill="white" mask="url(#path-7-outside-4_112_400)"/>
<mask id="mask0_112_400" style="mask-type:alpha" maskUnits="userSpaceOnUse" x="53" y="98" width="935" height="934">
<line x1="266.99" y1="105.5" x2="794.081" y2="1018.45" stroke="white" stroke-width="30"/>
<line x1="261.01" y1="1024.45" x2="788.1" y2="111.5" stroke="white" stroke-width="30"/>
<line x1="61.5" y1="835.083" x2="979.615" y2="305.01" stroke="white" stroke-width="30"/>
<line x1="60.5" y1="291.01" x2="978.615" y2="821.083" stroke="white" stroke-width="30"/>
</mask>
<g mask="url(#mask0_112_400)">
<circle cx="517" cy="563" r="498" stroke="white" stroke-width="86"/>
</g>
</svg>
